
<svg xmlns="http://www.w3.org/2000/svg" viewBox="0 0 240.09 224.16">

<path fill="currentColor" d="M0,23.63C8.91,98.94,51,154.81,51,154.81S77.74,141,95.55,115.13s18.62-61.54,18.62-61.54V.15C59.11.15,0,23.63,0,23.63ZM91.91,54s-4,39.68-33.2,68c0,0-23.49-34.82-32.39-82.59,0,0,22.67-10.53,65.59-13.77Z"/>
<path fill="currentColor" d="M219.32,16.31c-10.34,64.62-37,105.3-37,105.3-14.7-11.41-14.7-17.93-14.7-17.93,21.24-40.87,27.8-87.44,28.63-93.87-7-1.75-14.51-3.45-22.38-4.92-5.86,38-20,72.18-20,72.18-6.94-7.75-3.58-69.73-3.24-75.66A231.75,231.75,0,0,0,125.92,0V53.44s.81,35.63,18.62,61.54,44.54,39.68,44.54,39.68,42.1-55.87,51-131.18C240.09,23.48,232.12,20.32,219.32,16.31Z"/>
<path fill="currentColor" d="M114.17,192.32c-8.68-8.59-24.29-22.94-24.29-22.94,4.33-.54,16.62-14.47,24.29-23.64v-44c-8.29,17-25.46,44.06-56.68,62.79,0,0,24.59,34,56.68,59.59Z"/>
<path fill="currentColor" d="M125.51,101.11v44.67c8.56,10.91,24.29,23.6,24.29,23.6-1.15,1.74-15.93,15.86-24.29,23.79v31c11.54-9.13,38.3-31.78,57.49-59.63C183,164.53,141.21,136.45,125.51,101.11Z"/>
</svg>